<?xml version="1.0" encoding="UTF-8" standalone="no"?>
<!DOCTYPE svg PUBLIC "-//W3C//DTD SVG 1.1//EN"
 "http://www.w3.org/Graphics/SVG/1.1/DTD/svg11.dtd">
<!-- Generated by graphviz version 2.43.0 (0)
 -->
<!-- Title: G Pages: 1 -->
<svg width="898pt" height="366pt"
 viewBox="0.00 0.00 897.94 366.43" xmlns="http://www.w3.org/2000/svg" xmlns:xlink="http://www.w3.org/1999/xlink">
<g id="graph0" class="graph" transform="scale(1 1) rotate(0) translate(4 362.43)">
<title>G</title><style>.edge>path:hover{stroke-width:8}</style>
<polygon fill="white" stroke="transparent" points="-4,4 -4,-362.43 893.94,-362.43 893.94,4 -4,4"/>
<!-- opencf_core_base_converter -->
<g id="node1" class="node">
<title>opencf_core_base_converter</title><style>.edge>path:hover{stroke-width:8}</style>
<ellipse fill="#a83838" stroke="black" cx="667.26" cy="-168.21" rx="65.11" ry="21.43"/>
<text text-anchor="middle" x="667.26" y="-171.21" font-family="Helvetica,sans-Serif" font-size="10.00" fill="#ffffff">opencf_core.</text>
<text text-anchor="middle" x="667.26" y="-160.21" font-family="Helvetica,sans-Serif" font-size="10.00" fill="#ffffff">base_converter</text>
</g>
<!-- opencf_core_converter_app -->
<g id="node2" class="node">
<title>opencf_core_converter_app</title><style>.edge>path:hover{stroke-width:8}</style>
<ellipse fill="#964040" stroke="black" cx="829.12" cy="-119.21" rx="60.62" ry="21.43"/>
<text text-anchor="middle" x="829.12" y="-122.21" font-family="Helvetica,sans-Serif" font-size="10.00" fill="#ffffff">opencf_core.</text>
<text text-anchor="middle" x="829.12" y="-111.21" font-family="Helvetica,sans-Serif" font-size="10.00" fill="#ffffff">converter_app</text>
</g>
<!-- opencf_core_base_converter&#45;&gt;opencf_core_converter_app -->
<g id="edge1" class="edge">
<title>opencf_core_base_converter&#45;&gt;opencf_core_converter_app</title><style>.edge>path:hover{stroke-width:8}</style>
<path fill="none" stroke="black" d="M715.36,-153.78C733.56,-148.2 754.5,-141.78 773.36,-136"/>
<polygon fill="#a83838" stroke="black" points="774.47,-139.32 783.01,-133.04 772.42,-132.63 774.47,-139.32"/>
</g>
<!-- opencf_core_enum -->
<g id="node3" class="node">
<title>opencf_core_enum</title><style>.edge>path:hover{stroke-width:8}</style>
<ellipse fill="#cc3333" stroke="black" cx="214.9" cy="-217.21" rx="55.72" ry="21.43"/>
<text text-anchor="middle" x="214.9" y="-220.21" font-family="Helvetica,sans-Serif" font-size="10.00" fill="#ffffff">opencf_core.</text>
<text text-anchor="middle" x="214.9" y="-209.21" font-family="Helvetica,sans-Serif" font-size="10.00" fill="#ffffff">enum</text>
</g>
<!-- opencf_core_file_handler -->
<g id="node5" class="node">
<title>opencf_core_file_handler</title><style>.edge>path:hover{stroke-width:8}</style>
<ellipse fill="#bc2f2f" stroke="black" cx="510.34" cy="-217.21" rx="55.72" ry="21.43"/>
<text text-anchor="middle" x="510.34" y="-220.21" font-family="Helvetica,sans-Serif" font-size="10.00" fill="#ffffff">opencf_core.</text>
<text text-anchor="middle" x="510.34" y="-209.21" font-family="Helvetica,sans-Serif" font-size="10.00" fill="#ffffff">file_handler</text>
</g>
<!-- opencf_core_enum&#45;&gt;opencf_core_file_handler -->
<g id="edge2" class="edge">
<title>opencf_core_enum&#45;&gt;opencf_core_file_handler</title><style>.edge>path:hover{stroke-width:8}</style>
<path fill="none" stroke="black" d="M271.09,-217.21C320.28,-217.21 392.31,-217.21 444.28,-217.21"/>
<polygon fill="#cc3333" stroke="black" points="444.4,-220.71 454.4,-217.21 444.4,-213.71 444.4,-220.71"/>
</g>
<!-- opencf_core_filetypes -->
<g id="node6" class="node">
<title>opencf_core_filetypes</title><style>.edge>path:hover{stroke-width:8}</style>
<ellipse fill="#c82323" stroke="black" cx="362.62" cy="-266.21" rx="55.72" ry="21.43"/>
<text text-anchor="middle" x="362.62" y="-269.21" font-family="Helvetica,sans-Serif" font-size="10.00" fill="#ffffff">opencf_core.</text>
<text text-anchor="middle" x="362.62" y="-258.21" font-family="Helvetica,sans-Serif" font-size="10.00" fill="#ffffff">filetypes</text>
</g>
<!-- opencf_core_enum&#45;&gt;opencf_core_filetypes -->
<g id="edge3" class="edge">
<title>opencf_core_enum&#45;&gt;opencf_core_filetypes</title><style>.edge>path:hover{stroke-width:8}</style>
<path fill="none" stroke="black" d="M257.27,-231.12C273.88,-236.71 293.2,-243.21 310.66,-249.08"/>
<polygon fill="#cc3333" stroke="black" points="309.55,-252.4 320.15,-252.27 311.79,-245.76 309.55,-252.4"/>
</g>
<!-- opencf_core_exceptions -->
<g id="node4" class="node">
<title>opencf_core_exceptions</title><style>.edge>path:hover{stroke-width:8}</style>
<ellipse fill="#c24747" stroke="black" cx="214.9" cy="-337.21" rx="55.72" ry="21.43"/>
<text text-anchor="middle" x="214.9" y="-340.21" font-family="Helvetica,sans-Serif" font-size="10.00" fill="#ffffff">opencf_core.</text>
<text text-anchor="middle" x="214.9" y="-329.21" font-family="Helvetica,sans-Serif" font-size="10.00" fill="#ffffff">exceptions</text>
</g>
<!-- opencf_core_exceptions&#45;&gt;opencf_core_filetypes -->
<g id="edge4" class="edge">
<title>opencf_core_exceptions&#45;&gt;opencf_core_filetypes</title><style>.edge>path:hover{stroke-width:8}</style>
<path fill="none" stroke="black" d="M250.06,-320.57C270.45,-310.63 296.54,-297.92 318.36,-287.29"/>
<polygon fill="#c24747" stroke="black" points="319.96,-290.4 327.42,-282.88 316.89,-284.11 319.96,-290.4"/>
</g>
<!-- opencf_core_file_handler&#45;&gt;opencf_core_base_converter -->
<g id="edge5" class="edge">
<title>opencf_core_file_handler&#45;&gt;opencf_core_base_converter</title><style>.edge>path:hover{stroke-width:8}</style>
<path fill="none" stroke="black" d="M553.68,-203.82C571.14,-198.3 591.64,-191.82 610.32,-185.91"/>
<polygon fill="#bc2f2f" stroke="black" points="611.42,-189.23 619.9,-182.88 609.31,-182.56 611.42,-189.23"/>
</g>
<!-- opencf_core_file_handler&#45;&gt;opencf_core_converter_app -->
<g id="edge6" class="edge">
<title>opencf_core_file_handler&#45;&gt;opencf_core_converter_app</title><style>.edge>path:hover{stroke-width:8}</style>
<path fill="none" stroke="black" d="M538.13,-235.77C568.96,-254.77 621.13,-279.74 666.26,-266.21"/>
<path fill="none" stroke="black" d="M668.26,-266.21C731.45,-247.27 782.94,-185.55 809.21,-148.38"/>
<polygon fill="#bc2f2f" stroke="black" points="812.23,-150.16 815.03,-139.95 806.47,-146.19 812.23,-150.16"/>
</g>
<!-- opencf_core_filetypes&#45;&gt;opencf_core_base_converter -->
<g id="edge7" class="edge">
<title>opencf_core_filetypes&#45;&gt;opencf_core_base_converter</title><style>.edge>path:hover{stroke-width:8}</style>
<path fill="none" stroke="black" d="M417.55,-270.08C445.15,-271.08 479.21,-270.81 509.34,-266.21"/>
<path fill="none" stroke="black" d="M511.34,-266.21C561.96,-258.49 610.13,-221.78 638.95,-195.55"/>
<polygon fill="#c82323" stroke="black" points="641.62,-197.85 646.55,-188.47 636.85,-192.73 641.62,-197.85"/>
</g>
<!-- opencf_core_filetypes&#45;&gt;opencf_core_converter_app -->
<g id="edge8" class="edge">
<title>opencf_core_filetypes&#45;&gt;opencf_core_converter_app</title><style>.edge>path:hover{stroke-width:8}</style>
<path fill="none" stroke="black" d="M511.34,-266.21C579.41,-255.83 600.31,-285.98 666.26,-266.21"/>
</g>
<!-- opencf_core_filetypes&#45;&gt;opencf_core_file_handler -->
<g id="edge9" class="edge">
<title>opencf_core_filetypes&#45;&gt;opencf_core_file_handler</title><style>.edge>path:hover{stroke-width:8}</style>
<path fill="none" stroke="black" d="M404.99,-252.3C421.6,-246.72 440.92,-240.22 458.39,-234.35"/>
<polygon fill="#c82323" stroke="black" points="459.51,-237.66 467.87,-231.16 457.28,-231.03 459.51,-237.66"/>
</g>
<!-- opencf_core_io_handler -->
<g id="node7" class="node">
<title>opencf_core_io_handler</title><style>.edge>path:hover{stroke-width:8}</style>
<ellipse fill="#c24747" stroke="black" cx="510.34" cy="-119.21" rx="55.72" ry="21.43"/>
<text text-anchor="middle" x="510.34" y="-122.21" font-family="Helvetica,sans-Serif" font-size="10.00" fill="#ffffff">opencf_core.</text>
<text text-anchor="middle" x="510.34" y="-111.21" font-family="Helvetica,sans-Serif" font-size="10.00" fill="#ffffff">io_handler</text>
</g>
<!-- opencf_core_io_handler&#45;&gt;opencf_core_base_converter -->
<g id="edge10" class="edge">
<title>opencf_core_io_handler&#45;&gt;opencf_core_base_converter</title><style>.edge>path:hover{stroke-width:8}</style>
<path fill="none" stroke="black" d="M553.68,-132.6C571.14,-138.13 591.64,-144.61 610.32,-150.52"/>
<polygon fill="#c24747" stroke="black" points="609.31,-153.87 619.9,-153.55 611.42,-147.2 609.31,-153.87"/>
</g>
<!-- opencf_core_logging_config -->
<g id="node8" class="node">
<title>opencf_core_logging_config</title><style>.edge>path:hover{stroke-width:8}</style>
<ellipse fill="#e72222" stroke="black" cx="61.52" cy="-192.21" rx="61.54" ry="21.43"/>
<text text-anchor="middle" x="61.52" y="-195.21" font-family="Helvetica,sans-Serif" font-size="10.00" fill="#ffffff">opencf_core.</text>
<text text-anchor="middle" x="61.52" y="-184.21" font-family="Helvetica,sans-Serif" font-size="10.00" fill="#ffffff">logging_config</text>
</g>
<!-- opencf_core_logging_config&#45;&gt;opencf_core_base_converter -->
<g id="edge11" class="edge">
<title>opencf_core_logging_config&#45;&gt;opencf_core_base_converter</title><style>.edge>path:hover{stroke-width:8}</style>
<path fill="none" stroke="black" d="M363.62,-168.21C441.48,-163.92 530.78,-164.61 592.09,-165.94"/>
<polygon fill="#e72222" stroke="black" points="592.36,-169.45 602.44,-166.18 592.52,-162.45 592.36,-169.45"/>
</g>
<!-- opencf_core_logging_config&#45;&gt;opencf_core_converter_app -->
<g id="edge12" class="edge">
<title>opencf_core_logging_config&#45;&gt;opencf_core_converter_app</title><style>.edge>path:hover{stroke-width:8}</style>
<path fill="none" stroke="black" d="M121.21,-186.79C181.48,-181.38 278.03,-173.19 361.62,-168.21"/>
<path fill="none" stroke="black" d="M363.62,-168.21C416.9,-163.23 404.36,-107.96 454.48,-89.21 563.28,-48.53 702,-79.16 776.02,-101.44"/>
<polygon fill="#e72222" stroke="black" points="775.01,-104.79 785.6,-104.38 777.07,-98.1 775.01,-104.79"/>
</g>
<!-- opencf_core_logging_config&#45;&gt;opencf_core_enum -->
<g id="edge13" class="edge">
<title>opencf_core_logging_config&#45;&gt;opencf_core_enum</title><style>.edge>path:hover{stroke-width:8}</style>
<path fill="none" stroke="black" d="M117.6,-201.31C129.11,-203.21 141.3,-205.22 153.01,-207.16"/>
<polygon fill="#e72222" stroke="black" points="152.7,-210.65 163.14,-208.83 153.84,-203.75 152.7,-210.65"/>
</g>
<!-- opencf_core_logging_config&#45;&gt;opencf_core_file_handler -->
<g id="edge14" class="edge">
<title>opencf_core_logging_config&#45;&gt;opencf_core_file_handler</title><style>.edge>path:hover{stroke-width:8}</style>
<path fill="none" stroke="black" d="M363.62,-168.21C400.97,-166.15 441.11,-181.04 469.78,-194.93"/>
<polygon fill="#e72222" stroke="black" points="468.53,-198.22 479.04,-199.58 471.67,-191.96 468.53,-198.22"/>
</g>
<!-- opencf_core_mimes -->
<g id="node9" class="node">
<title>opencf_core_mimes</title><style>.edge>path:hover{stroke-width:8}</style>
<ellipse fill="#c24747" stroke="black" cx="214.9" cy="-277.21" rx="55.72" ry="21.43"/>
<text text-anchor="middle" x="214.9" y="-280.21" font-family="Helvetica,sans-Serif" font-size="10.00" fill="#ffffff">opencf_core.</text>
<text text-anchor="middle" x="214.9" y="-269.21" font-family="Helvetica,sans-Serif" font-size="10.00" fill="#ffffff">mimes</text>
</g>
<!-- opencf_core_mimes&#45;&gt;opencf_core_filetypes -->
<g id="edge15" class="edge">
<title>opencf_core_mimes&#45;&gt;opencf_core_filetypes</title><style>.edge>path:hover{stroke-width:8}</style>
<path fill="none" stroke="black" d="M269.75,-273.15C278.7,-272.47 288.07,-271.77 297.25,-271.07"/>
<polygon fill="#c24747" stroke="black" points="297.8,-274.54 307.51,-270.3 297.27,-267.56 297.8,-274.54"/>
</g>
<!-- opencf_core_utils -->
<g id="node10" class="node">
<title>opencf_core_utils</title><style>.edge>path:hover{stroke-width:8}</style>
<ellipse fill="#c24747" stroke="black" cx="667.26" cy="-21.21" rx="55.72" ry="21.43"/>
<text text-anchor="middle" x="667.26" y="-24.21" font-family="Helvetica,sans-Serif" font-size="10.00" fill="#ffffff">opencf_core.</text>
<text text-anchor="middle" x="667.26" y="-13.21" font-family="Helvetica,sans-Serif" font-size="10.00" fill="#ffffff">utils</text>
</g>
<!-- opencf_core_utils&#45;&gt;opencf_core_converter_app -->
<g id="edge16" class="edge">
<title>opencf_core_utils&#45;&gt;opencf_core_converter_app</title><style>.edge>path:hover{stroke-width:8}</style>
<path fill="none" stroke="black" d="M700.81,-38.33C710.99,-43.87 722.21,-50.15 732.31,-56.21 752.55,-68.37 774.6,-82.78 792.44,-94.75"/>
<polygon fill="#c24747" stroke="black" points="790.58,-97.72 800.83,-100.41 794.5,-91.92 790.58,-97.72"/>
</g>
</g>
</svg>
